# xmcd
#
# Track frame offsets:
#	150
#	20123
#	39925
#	54338
#	70633
#	86850
#	103945
#	117345
#	135903
#	151208
#	173388
#	193363
#	213165
#	227577
#	243872
#	260202
#	277227
#	290627
#	309182
#	324490
#
# Disc length: 4623 seconds
#
# Revision: 1
# Processed by: cddbd v1.5.1PL0 Copyright (c) Steve Scherf et al.
# Submitted via: audiograbber 1.83.01
#
DISCID=1c120d14
DTITLE=Dixie Chicks - Top Hits Monthly Platinum Vol 2
DYEAR=1900
DGENRE=Karaoke
TTITLE0=Cowboy Take Me Away (Vocals)
TTITLE1=Goodbye Earl (Vocals)
TTITLE2=Ready To Run (Vocals)
TTITLE3=Tonight the Heartaches On Me (Vocals)
TTITLE4=You Were Mine (Vocals)
TTITLE5=Wide Open Spaces (Vocals)
TTITLE6=There's Your Trouble (Vocals)
TTITLE7=I Can Love You Better (Vocals)
TTITLE8=Am I The Only One (Vocals)
TTITLE9=Give It Up Or Let Me Go (Vocals)
TTITLE10=Cowboy Take Me Away 
TTITLE11=Goodbye Earl 
TTITLE12=Ready To Run
TTITLE13=Tonight the Heartaches On Me 
TTITLE14=You Were Mine 
TTITLE15=Wide Open Spaces
TTITLE16=There's Your Trouble
TTITLE17=I Can Love You Better 
TTITLE18=Am I The Only One
TTITLE19=Give It Up Or Let Me Go
EXTD=
EXTT0=
EXTT1=
EXTT2=
EXTT3=
EXTT4=
EXTT5=
EXTT6=
EXTT7=
EXTT8=
EXTT9=
EXTT10=
EXTT11=
EXTT12=
EXTT13=
EXTT14=
EXTT15=
EXTT16=
EXTT17=
EXTT18=
EXTT19=
PLAYORDER=
